<mxfile host="app.diagrams.net" agent="Mozilla/5.0 (X11; Ubuntu; Linux x86_64; rv:136.0) Gecko/20100101 Firefox/136.0" version="26.1.3">
  <diagram name="Page-1" id="4l4IsSA_Ub1HTgt-EzOl">
    <mxGraphModel dx="1346" dy="1631" grid="1" gridSize="10" guides="1" tooltips="1" connect="1" arrows="1" fold="1" page="1" pageScale="1" pageWidth="1100" pageHeight="850" math="0" shadow="0">
      <root>
        <mxCell id="0" />
        <mxCell id="1" parent="0" />
        <mxCell id="wuPh1dbSjncncGqh15LH-1" value="planter bed" style="rounded=1;whiteSpace=wrap;html=1;" parent="1" vertex="1">
          <mxGeometry x="270" y="150" width="110" height="30" as="geometry" />
        </mxCell>
        <mxCell id="wuPh1dbSjncncGqh15LH-2" value="planter bed" style="rounded=1;whiteSpace=wrap;html=1;" parent="1" vertex="1">
          <mxGeometry x="270" y="200" width="110" height="30" as="geometry" />
        </mxCell>
        <mxCell id="wuPh1dbSjncncGqh15LH-3" value="planter bed" style="rounded=1;whiteSpace=wrap;html=1;" parent="1" vertex="1">
          <mxGeometry x="430" y="150" width="110" height="30" as="geometry" />
        </mxCell>
        <mxCell id="wuPh1dbSjncncGqh15LH-4" value="planter bed" style="rounded=1;whiteSpace=wrap;html=1;" parent="1" vertex="1">
          <mxGeometry x="430" y="200" width="110" height="30" as="geometry" />
        </mxCell>
        <mxCell id="wuPh1dbSjncncGqh15LH-5" value="planter bed" style="rounded=1;whiteSpace=wrap;html=1;" parent="1" vertex="1">
          <mxGeometry x="590" y="150" width="110" height="30" as="geometry" />
        </mxCell>
        <mxCell id="wuPh1dbSjncncGqh15LH-6" value="planter bed" style="rounded=1;whiteSpace=wrap;html=1;" parent="1" vertex="1">
          <mxGeometry x="590" y="200" width="110" height="30" as="geometry" />
        </mxCell>
        <mxCell id="wuPh1dbSjncncGqh15LH-7" value="planter bed" style="rounded=1;whiteSpace=wrap;html=1;" parent="1" vertex="1">
          <mxGeometry x="750" y="150" width="110" height="30" as="geometry" />
        </mxCell>
        <mxCell id="wuPh1dbSjncncGqh15LH-8" value="planter bed" style="rounded=1;whiteSpace=wrap;html=1;" parent="1" vertex="1">
          <mxGeometry x="750" y="200" width="110" height="30" as="geometry" />
        </mxCell>
        <mxCell id="wuPh1dbSjncncGqh15LH-9" value="planter bed" style="rounded=1;whiteSpace=wrap;html=1;" parent="1" vertex="1">
          <mxGeometry x="910" y="150" width="110" height="30" as="geometry" />
        </mxCell>
        <mxCell id="wuPh1dbSjncncGqh15LH-10" value="planter bed" style="rounded=1;whiteSpace=wrap;html=1;" parent="1" vertex="1">
          <mxGeometry x="910" y="200" width="110" height="30" as="geometry" />
        </mxCell>
        <mxCell id="dtj401ZnlmiVif_A7q87-1" value="trees/ground cover/planter bed" style="rounded=1;whiteSpace=wrap;html=1;" vertex="1" parent="1">
          <mxGeometry x="120" y="40" width="900" height="60" as="geometry" />
        </mxCell>
        <mxCell id="dtj401ZnlmiVif_A7q87-2" value="vege pod/trees/potted" style="rounded=1;whiteSpace=wrap;html=1;rotation=-90;" vertex="1" parent="1">
          <mxGeometry x="90" y="150" width="120" height="60" as="geometry" />
        </mxCell>
        <mxCell id="dtj401ZnlmiVif_A7q87-3" value="" style="rounded=1;whiteSpace=wrap;html=1;rotation=90;" vertex="1" parent="1">
          <mxGeometry x="1200" y="110" width="200" height="60" as="geometry" />
        </mxCell>
        <mxCell id="dtj401ZnlmiVif_A7q87-4" value="trees/hedges/ground cover/potted/planter" style="rounded=1;whiteSpace=wrap;html=1;rotation=-90;" vertex="1" parent="1">
          <mxGeometry x="-170" y="610" width="640" height="60" as="geometry" />
        </mxCell>
        <mxCell id="dtj401ZnlmiVif_A7q87-5" value="hedges/trees/planter bed/ground cover/potted/planter" style="rounded=1;whiteSpace=wrap;html=1;" vertex="1" parent="1">
          <mxGeometry x="200" y="900" width="820" height="60" as="geometry" />
        </mxCell>
        <mxCell id="dtj401ZnlmiVif_A7q87-6" value="tree/planter bed" style="rounded=1;whiteSpace=wrap;html=1;" vertex="1" parent="1">
          <mxGeometry x="1230" y="440" width="100" height="100" as="geometry" />
        </mxCell>
        <mxCell id="dtj401ZnlmiVif_A7q87-8" value="&lt;font style=&quot;font-size: 19px;&quot;&gt;&lt;b&gt;&lt;u&gt;Level 1&lt;/u&gt;&lt;/b&gt;&lt;/font&gt;" style="rounded=0;whiteSpace=wrap;html=1;fillColor=#ffe6cc;strokeColor=#d79b00;" vertex="1" parent="1">
          <mxGeometry x="630" y="-160" width="120" height="60" as="geometry" />
        </mxCell>
        <mxCell id="dtj401ZnlmiVif_A7q87-9" value="&lt;font style=&quot;font-size: 19px;&quot;&gt;&lt;b&gt;&lt;u&gt;Level 2&lt;/u&gt;&lt;/b&gt;&lt;/font&gt;" style="rounded=0;whiteSpace=wrap;html=1;fillColor=#ffe6cc;strokeColor=#d79b00;" vertex="1" parent="1">
          <mxGeometry x="585" y="1130" width="120" height="60" as="geometry" />
        </mxCell>
        <mxCell id="dtj401ZnlmiVif_A7q87-11" value="Trellis/Pergola" style="rounded=1;whiteSpace=wrap;html=1;" vertex="1" parent="1">
          <mxGeometry x="400" y="1280" width="480" height="190" as="geometry" />
        </mxCell>
        <mxCell id="dtj401ZnlmiVif_A7q87-12" value="potted/planter" style="rounded=1;whiteSpace=wrap;html=1;" vertex="1" parent="1">
          <mxGeometry x="320" y="1220" width="640" height="40" as="geometry" />
        </mxCell>
        <mxCell id="dtj401ZnlmiVif_A7q87-13" value="potted/planter" style="rounded=1;whiteSpace=wrap;html=1;rotation=-90;" vertex="1" parent="1">
          <mxGeometry x="245" y="1355" width="190" height="40" as="geometry" />
        </mxCell>
        <mxCell id="dtj401ZnlmiVif_A7q87-14" value="potted/planter" style="rounded=1;whiteSpace=wrap;html=1;rotation=-90;" vertex="1" parent="1">
          <mxGeometry x="850" y="1355" width="190" height="40" as="geometry" />
        </mxCell>
      </root>
    </mxGraphModel>
  </diagram>
</mxfile>
